<svg xmlns="http://www.w3.org/2000/svg" viewBox="0 0 16 16"><path d="M15.47 3v11.61a.8.8 0 0 1-.63.78A36 36 0 0 1 8 16a36 36 0 0 1-6.83-.6.8.8 0 0 1-.63-.78V3a.8.8 0 0 1 .63-.78c.05 0 .6-.12 1.5-.23v.72A1.35 1.35 0 0 0 4.09 4a1.08 1.08 0 0 1-.35-.8V1.07a1.07 1.07 0 1 1 2.13 0v.58h3.2v1.02A1.35 1.35 0 0 0 10.49 4a1.08 1.08 0 0 1-.35-.8V1.07a1.07 1.07 0 1 1 2.13 0v.75c1.53.17 2.48.35 2.57.37a.8.8 0 0 1 .63.81zm-1.6 11V6.4H2.14V14a36.28 36.28 0 0 0 5.86.48 36.28 36.28 0 0 0 5.87-.48zM3.74 12.8v-2.14h2.13v2.14zm5.33-3.2H6.94V7.46h2.13zm-2.13 3.2v-2.14h2.13v2.14zm5.33-3.2h-2.13V7.46h2.13zm-2.13 3.2v-2.14h2.13v2.14z"/></svg>