<svg id="Layer_1" xmlns="http://www.w3.org/2000/svg" viewBox="0 0 91.5 70"><style>.st0{fill:none}.st1{fill:#fff}</style><path class="st0" d="M0 0h91.5v70H0V0z"/><path class="st1" d="M88.1 4.4l-1.9 5.9c-2.1-.9-4.3-1.4-6.6-1.4-3.2 0-5.7.5-5.7 2.9 0 4.2 11.6 2.6 11.6 11.6 0 8.2-7.7 10.3-14.6 10.3-3.1-.1-6.2-.6-9.2-1.5l1.9-6c2.3 1.2 4.8 1.7 7.4 1.7 2.5 0 6.4-.5 6.4-3.5 0-4.8-11.6-3-11.6-11.3 0-7.7 6.7-10 13.3-10 3.6-.1 7 .3 9 1.3m-22.9-.8L59 33.2h-8l2.6-12.7h-9.4l-2.7 12.7h-8l6.3-29.6h7.9l-2.3 11.3h9.4l2.4-11.3h8zm-28.4 0l-6.3 29.6h-9.9l-6.3-20.5h-.1l-4.1 20.5H2.6L8.9 3.6h10L25 24.1h.1l4.2-20.5h7.5zM.5 47.4h10.1v2.7H4v4.2h6.1V57H4v4.8h6.8v2.7H.5V47.4zm13.4 4.5H17v1.7c.9-1.3 2.5-2.1 4.2-2 3 0 4.3 2.1 4.3 5v8h-3.3v-6.8c0-1.5 0-3.6-2.1-3.6-2.4 0-2.9 2.6-2.9 4.2v6.2h-3.3V51.9zm26.7 0v11.5c0 3.5-1.4 6.7-6.7 6.7-1.5 0-3-.3-4.4-.9l.3-2.8c1.1.6 2.4 1 3.7 1.1 3.6 0 3.8-2.7 3.8-4.9-.9 1.3-2.4 2.1-3.9 2-3.7 0-5.2-3-5.2-6.4 0-3 1.6-6.6 5.4-6.6 1.6-.1 3.1.7 3.9 2v-1.7h3.1zm-3.3 6.2c0-2.2-.8-3.9-2.8-3.9-2.2 0-3 2.1-3 4 0 1.7.9 3.8 2.8 3.8 2.2 0 3-1.8 3-3.9zm6.8-12h3.3v18.5h-3.3V46.1zm7.3 6.4c1.4-.6 2.9-1 4.4-1 3.9 0 5.5 1.6 5.5 5.3v4.8c0 1 .1 1.8.2 2.8h-2.9c-.1-.6-.1-1.3-.2-1.9-.8 1.4-2.3 2.2-3.9 2.2-2.2 0-4.4-1.4-4.4-3.8-.1-1.5.8-3 2.2-3.6 1.3-.6 2.8-.8 4.3-.7h1.8c0-2-.9-2.7-2.9-2.7-1.4 0-2.8.5-3.9 1.4l-.2-2.8zm3.9 9.9c.9 0 1.8-.4 2.3-1.1.5-.8.8-1.7.7-2.6h-1.4c-1.5 0-3.7.2-3.7 2.2 0 1.1.9 1.5 2.1 1.5zm9.3-10.5h3.1v1.7h.1c.9-1.3 2.5-2.1 4.2-2 3 0 4.3 2.1 4.3 5v8H73v-6.8c0-1.5 0-3.6-2.1-3.6-2.4 0-2.9 2.6-2.9 4.2v6.2h-3.3c-.2-.1-.2-12.7-.1-12.7zM88 63.1c-.9 1.2-2.4 1.8-3.9 1.7-3.9 0-5.3-3.2-5.3-6.7s1.4-6.6 5.3-6.6c1.5-.1 2.9.6 3.8 1.8V46h3.3v18.5H88v-1.4zm-3-.8c2.2 0 2.9-2.3 2.9-4.1s-.8-4-3-4-2.7 2.3-2.7 4 .6 4.1 2.8 4.1zM91.5 0H0v36.9h91.5V0z"/></svg>