<svg id="Layer_1" xmlns="http://www.w3.org/2000/svg" viewBox="0 0 56.7 56.7"><style>.st0{fill:#425563}</style><path class="st0" d="M52.8 15.1c-1.8.8-3.8 1.3-5.8 1.6 2.1-1.2 3.7-3.2 4.4-5.6-2 1.2-4.1 2-6.4 2.5-1.8-2-4.5-3.2-7.4-3.2-5.6 0-10.1 4.5-10.1 10.1 0 .8.1 1.6.3 2.3C19.4 22.3 12 18.3 7 12.2c-.9 1.5-1.4 3.2-1.4 5.1 0 3.5 1.8 6.6 4.5 8.4-1.7-.1-3.2-.5-4.6-1.3v.1c0 4.9 3.5 9 8.1 9.9-.8.2-1.7.4-2.7.4-.7 0-1.3-.1-1.9-.2 1.3 4 5 6.9 9.4 7C15.1 44.3 10.7 46 6 46c-.8 0-1.6 0-2.4-.1 4.5 2.9 9.8 4.5 15.5 4.5 18.6 0 28.8-15.4 28.8-28.8v-1.3c1.9-1.4 3.6-3.2 4.9-5.2z"/></svg>