<svg id="Layer_1" xmlns="http://www.w3.org/2000/svg" viewBox="0 0 56.7 56.7"><style>.st0{fill:#425563}</style><path class="st0" d="M43.9 28.2H12.8c-4.9 0-9 4-9 9v7.2c0 4.9 4 9 9 9h31.1c4.9 0 9-4 9-9v-7.2c0-5-4-9-9-9zm-24.6 5.6h-2.9v14.4h-2.8V33.8h-2.9v-2.4h8.6v2.4zm8.2 14.4H25v-1.4c-.5.5-.9.9-1.4 1.1-.5.3-1 .4-1.4.4-.6 0-1-.2-1.3-.6-.3-.4-.4-.9-.4-1.7V35.8H23v9.5c0 .3.1.5.2.6.1.1.3.2.5.2s.4-.1.7-.3c.3-.2.5-.4.8-.7v-9.4h2.5v12.5zm9-2.6c0 .9-.2 1.6-.6 2-.4.5-1 .7-1.7.7-.5 0-.9-.1-1.3-.3-.4-.2-.7-.5-1.1-.8v1h-2.5V31.4h2.5v5.4c.3-.4.7-.7 1.1-.9.4-.2.8-.3 1.1-.3.8 0 1.4.3 1.8.8.4.5.6 1.3.6 2.3l.1 6.9zm8.6-3.3h-4.7v2.3c0 .7.1 1.1.2 1.4.2.3.4.4.8.4s.7-.1.9-.3c.2-.2.2-.7.2-1.4v-.6h2.6v.6c0 1.3-.3 2.2-.9 2.9-.6.6-1.5 1-2.8 1-1.1 0-2-.3-2.6-1-.6-.7-1-1.6-1-2.8v-5.6c0-1.1.4-2 1.1-2.6.7-.7 1.6-1 2.7-1s2 .3 2.6.9c.6.6.9 1.5.9 2.7v3.1z"/><path class="st0" d="M41.5 37.6c-.4 0-.7.1-.8.3-.2.2-.3.6-.3 1.1v1.3h2.2V39c0-.5-.1-.9-.3-1.1-.2-.1-.5-.3-.8-.3zM32.9 37.6c-.2 0-.4 0-.5.1-.2.1-.3.2-.5.4v7.7c.2.2.4.4.6.4.2.1.4.1.6.1.3 0 .5-.1.7-.3.1-.2.2-.5.2-.9v-6.4c0-.4-.1-.7-.3-1-.2 0-.5-.1-.8-.1zM16.9 23.9H20v-7.7l3.7-10.8h-3.2l-2 7.4h-.2l-2-7.4h-3.2l3.8 11.2zM27.9 24.2c1.3 0 2.3-.3 3-1 .7-.7 1.1-1.6 1.1-2.8v-7.1c0-1-.4-1.9-1.1-2.6-.7-.7-1.7-1-2.8-1-1.3 0-2.3.3-3 .9-.8.6-1.1 1.5-1.1 2.5v7.1c0 1.2.4 2.1 1.1 2.8.6.9 1.6 1.2 2.8 1.2zm-1.1-11c0-.3.1-.5.3-.7.2-.2.5-.3.8-.3.4 0 .7.1.9.3.2.2.3.4.3.7v7.5c0 .4-.1.7-.3.9-.2.2-.5.3-.9.3s-.7-.1-.9-.3c-.2-.2-.3-.5-.3-.9l.1-7.5zM36.2 24.1c.5 0 1.1-.1 1.6-.4.6-.3 1.1-.7 1.6-1.3v1.5h2.8V10.2h-2.8v10.4c-.3.3-.5.5-.9.7-.3.2-.6.3-.8.3-.3 0-.5-.1-.6-.2-.1-.1-.2-.4-.2-.7V10.2h-2.8v11.4c0 .8.2 1.4.5 1.8.5.5 1 .7 1.6.7z"/></svg>