<?xml version="1.0" encoding="utf-8"?>
<!-- Generator: Adobe Illustrator 21.0.0, SVG Export Plug-In . SVG Version: 6.00 Build 0)  -->
<svg version="1.1" id="Layer_1" xmlns="http://www.w3.org/2000/svg" xmlns:xlink="http://www.w3.org/1999/xlink" x="0px" y="0px"
	 viewBox="0 0 495 375" style="enable-background:new 0 0 495 375;" xml:space="preserve">
<style type="text/css">
	.st0{fill:#FFFFFF;}
	.st1{fill:#005EB8;}
	.st2{fill:#ED8B00;}
	.st3{fill:#8A1538;}
</style>
<rect x="5" y="6" class="st0" width="485" height="198"/>
<path class="st1" d="M5,105v99h242.5H490v-99V6H247.5H5V105z M454,24.4c8.5,1.5,14.9,3.2,16.7,4.4c0.9,0.6-0.1,4.8-3.8,16.2
	c-2.7,8.5-5.1,15.6-5.3,15.7c-0.2,0.2-2.3-0.5-4.7-1.6c-14.8-6.5-45.7-6.8-55.3-0.6c-2.9,1.9-5,6.7-4.9,11.1
	c0.2,6.7,5.5,10.9,21.6,17.3c27,10.7,37.3,21.3,39.3,40.3c2.1,21.2-8.6,40.6-27.7,50.1c-19.3,9.5-49.1,12.2-77,6.7
	c-12-2.3-20.9-4.8-20.9-5.8c0-0.9,9.1-30.6,9.5-31c0.2-0.2,3.4,0.8,7,2.3c9.3,3.7,19.9,5.5,32.4,5.5c21.9,0,33.1-6.1,33.1-18
	c0-9.1-4.5-13-24-21c-15.3-6.3-20-9-26.6-15.2c-6.7-6.3-9.6-12.9-10.2-22.9c-1.8-29.9,17.9-49.8,54.3-54.8
	C416.4,21.8,444.2,22.6,454,24.4z M121.4,80.3c10.5,35.7,16.3,54.2,16.8,53c0.4-1,5.3-24.8,10.8-52.8c5.6-28.1,10.4-52,10.7-53.3
	c0.5-2.2,0.6-2.2,20.5-2.2c19.7,0,20,0,19.5,2c-0.3,1.2-7.9,36.9-16.8,79.6L166.6,184l-26.4-0.2l-26.5-0.3l-16.3-54.3
	C88.5,99.3,81,74.7,80.8,74.5c-0.2-0.2-5.2,24.3-11.2,54.5l-10.8,55h-20h-20l0.5-2.8c0.3-1.5,7.8-36.8,16.6-78.6
	C44.8,60.9,52,26.4,52,25.9c0-0.6,11.3-0.8,26.7-0.7l26.7,0.3L121.4,80.3z M257.5,27.2c-1.7,7.5-11.5,56.2-11.5,57.4
	c0,1.2,4.2,1.4,24.8,1.4h24.7l5.9-29.3c3.3-16,6.1-29.8,6.4-30.5c0.3-0.9,5.5-1.2,21.3-1.2c11.5,0,20.9,0.3,20.9,0.7
	c0,0.5-7.3,36.2-16.2,79.5L317.6,184h-21.3H275l0.5-2.3c0.7-2.9,13.5-64.8,13.5-65.3c0-0.8-50-0.4-50,0.3
	c-0.1,0.5-3.1,15.6-6.9,33.8l-6.7,33l-21.3,0.3l-21.3,0.2l0.5-2.2c0.3-1.3,7.6-37.1,16.4-79.5L215.5,25h21.3H258L257.5,27.2z"/>
<path class="st2" d="M84.7,282.2c-0.4,11.2-0.7,35-0.7,53V368h9h9v-23c0-25.8,0.5-28.5,6.2-32c2.3-1.4,5-2,9-2
	c4.9,0,6.2,0.4,8.8,2.7c1.9,1.7,3.5,4.4,4,6.8c0.5,2.2,1,13.8,1,25.7V368h9h9v-23c0-13.1-0.5-25.2-1.1-28.2
	c-2.3-10.6-7.5-17.4-16.8-21.6c-4.6-2.1-6.4-2.4-13.1-2c-5.6,0.3-8.8,1.1-11.4,2.6c-2.1,1.2-3.9,2.2-4.2,2.2c-0.2,0-0.1-8.1,0.2-18
	l0.7-18h-9h-9L84.7,282.2z"/>
<path class="st2" d="M241,277.5v8.5h9.5h9.5v-8.5V269h-9.5H241V277.5z"/>
<path class="st2" d="M33.7,293c-21.9,3.7-36.4,27.2-30.2,48.5c7.8,27,40.1,36.8,61.5,18.8c3.6-3,11-13.8,11-16c0-1-2.1-1.3-8.8-1.3
	c-8.4,0-8.8,0.1-11.6,3c-8.6,9.2-21.8,9.2-30.7,0c-8.4-8.6-8.7-20.4-0.8-29.3c8.1-9.2,21-10.1,29.8-2.1c3.8,3.3,4,3.4,12.9,3.4H76
	l-1.1-2.7c-1.7-4.7-8-12.2-12.7-15.5C53.6,293.9,43.3,291.4,33.7,293z"/>
<path class="st2" d="M182.3,294.8c-13.4,4.8-22.5,15.5-25.3,29.9c-5,25.4,19.2,49.5,44.6,44.3c15.7-3.2,27.6-15.5,30.6-31.8
	c3-16-5.9-33-21-40.4c-5.7-2.8-7.9-3.3-15.2-3.6C189.7,293,186.1,293.5,182.3,294.8z M205.7,312.6c6.8,3.9,10.3,10.4,10.3,18.7
	c-0.1,13.3-10.6,22.7-23.8,21.4c-10.5-1.1-17.9-8.8-18.9-19.6C171.7,315.4,190.2,303.6,205.7,312.6z"/>
<path class="st3" d="M190.4,320.9c-6.8,2.9-8.7,13-3.5,18.2c2.4,2.4,3.8,2.9,7.6,2.9s5.2-0.5,7.6-2.9c6.1-6.1,2.4-17.5-6.1-18.6
	C194.1,320.2,191.5,320.4,190.4,320.9z"/>
<path class="st2" d="M294.3,294.8c-27.7,9.8-34.6,45.1-12.6,65.2c14.7,13.4,37.6,12.8,51.8-1.5c3.6-3.6,9.5-12.9,9.5-15
	c0-0.3-4-0.5-8.8-0.5c-8.6,0-8.9,0.1-11.8,3.1c-10.4,11.1-28.6,8.3-35-5.5c-4.1-8.7-2.8-17.1,3.8-24.2c4.8-5.2,12.2-7.9,18.5-6.8
	c4.6,0.8,11.7,4.7,13.6,7.5c1.3,1.8,2.4,1.9,10.6,1.7l9.2-0.3l-2.6-5.2c-3.3-6.5-10.9-13.7-18.3-17.1
	C314.7,292.7,302.1,292.1,294.3,294.8z"/>
<path class="st2" d="M371.7,295.4c-15.7,6.5-24.4,20.6-23.5,38c0.4,6.9,1,9.6,3.6,14.9c9.1,18.3,30.9,26.1,49.9,17.7
	c5.9-2.6,12.8-9.3,15.8-15.3l2.6-5.2l-9.6-0.3c-9.2-0.3-9.7-0.2-11.5,2.1c-2.8,3.5-8.1,5.7-13.8,5.7c-8.6,0-13.6-3-17.3-10.2
	c-1-2.1-1.9-4-1.9-4.3s12.7-0.5,28.1-0.5h28.2l-0.6-7.8c-1.8-22.8-15.9-37.1-36.7-37.1C379.4,293.1,376.1,293.6,371.7,295.4z
	 M394,311c3.8,1.9,9,8.1,9,10.7c0,1-4.1,1.3-18,1.3c-19.9,0-19.8,0.1-15.5-6.3C374.6,309.3,385.6,306.7,394,311z"/>
<path class="st2" d="M447.5,294.3c-12.2,4.1-18.5,11.5-18.5,21.9c0,12.2,8.3,17.9,32.3,22.2c10.9,2,12.7,3.1,12.7,7.3
	c0,4.1-2.9,6.1-9.6,6.9c-6.9,0.8-13.2-1.1-17.1-5.2c-3.1-3.4-3.3-3.4-11.7-3.4c-10,0-10.2,0.3-6,8.8c4.3,8.6,13.3,14.5,24.9,16.1
	c25.1,3.6,45-14.1,36.6-32.5c-3.3-7.2-9.3-10.3-27.3-13.9c-13.3-2.6-17.1-4.4-16.6-7.8c0.9-6.6,18.5-7.6,23.7-1.4
	c1.1,1.4,3.2,1.7,10.8,1.7c9.3,0,9.4,0,8.7-2.3c-2.2-7.1-7.6-13.1-15-16.7C469.4,293.1,454,292.2,447.5,294.3z"/>
<path class="st2" d="M241,331.5V368h9.5h9.5v-36.5V295h-9.5H241V331.5z"/>
</svg>
