<svg id="Layer_1" xmlns="http://www.w3.org/2000/svg" viewBox="0 0 144 144"><style>.st0{fill:#005eb8}.st1{fill:#7c2855}</style><path class="st0" d="M108.8 36.4l-4.2-4.1c-.2-.2-.3-.5-.3-.8s.1-.6.3-.8.5-.3.8-.3c.3 0 .6.1.8.3l5.3 5.1c.2.1.2.3.2.5s-.1.4-.2.5l-5.3 5.1c-.2.2-.5.3-.8.3s-.6-.1-.8-.3-.3-.5-.3-.8.1-.6.3-.8l4.2-3.9zM35.3 36.4l4.2 4.1c.2.2.3.5.3.8s-.1.6-.3.8-.5.3-.8.3c-.3 0-.6-.1-.8-.3L32.5 37c-.2-.1-.2-.3-.2-.5s.1-.4.2-.5l5.3-5.1c.2-.2.5-.3.8-.3s.6.1.8.3.3.5.3.8-.1.6-.3.8l-4.1 3.9z"/><path class="st1" d="M108.8 108.4l-4.2-4.1c-.2-.2-.3-.5-.3-.8s.1-.6.3-.8.5-.3.8-.3c.3 0 .6.1.8.3l5.3 5.1c.2.1.2.3.2.5s-.1.4-.2.5l-5.3 5.1c-.2.2-.5.3-.8.3s-.6-.1-.8-.3-.3-.5-.3-.8.1-.6.3-.8l4.2-3.9zM35.3 108.4l4.2 4.1c.2.2.3.5.3.8s-.1.6-.3.8-.5.3-.8.3c-.3 0-.6-.1-.8-.3l-5.3-5.1c-.2-.1-.2-.3-.2-.5s.1-.4.2-.5l5.3-5.1c.2-.2.5-.3.8-.3s.6.1.8.3.3.5.3.8-.1.6-.3.8l-4.2 3.9z"/></svg>